watermark-remover-1  | [17:16:05.464] INFO (18): FFmpeg command: ffmpeg -i /app/uploads/1773767764305-Flow_delpmaspu_.mp4 -y -vcodec libx264 -filter:v delogo=x=main_w-220:y=main_h-110:w='min(200, main_w-x)':h='min(90, main_h-y)':show=0 -y /app/outputs/clean-1773767764305-Flow_delpmaspu_.mp4
watermark-remover-1  | [17:16:05.823] ERROR (18): FFmpeg Error: ffmpeg exited with code 1: Conversion failed!
watermark-remover-1  |
watermark-remover-1  | [17:16:05.823] ERROR (18): FFmpeg stderr: ffmpeg version 5.1.8-0+deb12u1 Copyright (c) 2000-2025 the FFmpeg developers
watermark-remover-1  |   built with gcc 12 (Debian 12.2.0-14+deb12u1)
watermark-remover-1  |   configuration: --prefix=/usr --extra-version=0+deb12u1 --toolchain=hardened --libdir=/usr/lib/x86_64-linux-gnu --incdir=/usr/include/x86_64-linux-gnu --arch=amd64 --enable-gpl --disable-stripping --enable-gnutls --enable-ladspa --enable-libaom --enable-libass --enable-libbluray --enable-libbs2b --enable-libcaca --enable-libcdio --enable-libcodec2 --enable-libdav1d --enable-libflite --enable-libfontconfig --enable-libfreetype --enable-libfribidi --enable-libglslang --enable-libgme --enable-libgsm --enable-libjack --enable-libmp3lame --enable-libmysofa --enable-libopenjpeg --enable-libopenmpt --enable-libopus --enable-libpulse --enable-librabbitmq --enable-librist --enable-librubberband --enable-libshine --enable-libsnappy --enable-libsoxr --enable-libspeex --enable-libsrt --enable-libssh --enable-libsvtav1 --enable-libtheora --enable-libtwolame --enable-libvidstab --enable-libvorbis --enable-libvpx --enable-libwebp --enable-libx265 --enable-libxml2 --enable-libxvid --enable-libzimg --enable-libzmq --enable-libzvbi --enable-lv2 --enable-omx --enable-openal --enable-opencl --enable-opengl --enable-sdl2 --disable-sndio --enable-libjxl --enable-pocketsphinx --enable-librsvg --enable-libmfx --enable-libdc1394 --enable-libdrm --enable-libiec61883 --enable-chromaprint --enable-frei0r --enable-libx264 --enable-libplacebo --enable-librav1e --enable-shared
watermark-remover-1  |   libavutil      57. 28.100 / 57. 28.100
watermark-remover-1  |   libavcodec     59. 37.100 / 59. 37.100
watermark-remover-1  |   libavformat    59. 27.100 / 59. 27.100
watermark-remover-1  |   libavdevice    59.  7.100 / 59.  7.100
watermark-remover-1  |   libavfilter     8. 44.100 /  8. 44.100
watermark-remover-1  |   libswscale      6.  7.100 /  6.  7.100
watermark-remover-1  |   libswresample   4.  7.100 /  4.  7.100
watermark-remover-1  |   libpostproc    56.  6.100 / 56.  6.100
watermark-remover-1  | Input #0, mov,mp4,m4a,3gp,3g2,mj2, from '/app/uploads/1773767764305-Flow_delpmaspu_.mp4':
watermark-remover-1  |   Metadata:
watermark-remover-1  |     major_brand     : isom
watermark-remover-1  |     minor_version   : 512
watermark-remover-1  |     compatible_brands: isomiso2avc1mp41
watermark-remover-1  |     encoder         : Google
watermark-remover-1  |   Duration: 00:00:08.00, start: 0.000000, bitrate: 15923 kb/s
watermark-remover-1  |   Stream #0:0[0x1](und): Video: h264 (High) (avc1 / 0x31637661), yuv420p(progressive), 1080x1920, 15770 kb/s, 24 fps, 24 tbr, 12288 tbn (default)
watermark-remover-1  |     Metadata:
watermark-remover-1  |       handler_name    : VideoHandler
watermark-remover-1  |       vendor_id       : [0][0][0][0]
watermark-remover-1  |   Stream #0:1[0x2](und): Audio: aac (LC) (mp4a / 0x6134706D), 48000 Hz, stereo, fltp, 139 kb/s (default)
watermark-remover-1  |     Metadata:
watermark-remover-1  |       handler_name    : SoundHandler
watermark-remover-1  |       vendor_id       : [0][0][0][0]
watermark-remover-1  | Stream mapping:
watermark-remover-1  |   Stream #0:0 -> #0:0 (h264 (native) -> h264 (libx264))
watermark-remover-1  |   Stream #0:1 -> #0:1 (aac (native) -> aac (native))
watermark-remover-1  | Press [q] to stop, [?] for help
watermark-remover-1  | [Parsed_delogo_0 @ 0x5f777f730280] [Eval @ 0x7ffc2e5f13e0] Undefined constant or missing '(' in 'main_w-220'
watermark-remover-1  | [Parsed_delogo_0 @ 0x5f777f730280] Error when parsing the expression 'main_w-220' for x
watermark-remover-1  | [AVFilterGraph @ 0x5f777f730180] Error initializing filter 'delogo' with args 'x=main_w-220:y=main_h-110:w=min(200, main_w-x):h=min(90, main_h-y):show=0'
watermark-remover-1  | Error reinitializing filters!
watermark-remover-1  | Failed to inject frame into filter network: Invalid argument
watermark-remover-1  | Error while processing the decoded data for stream #0:0
watermark-remover-1  | [aac @ 0x5f777e939a80] Qavg: 303.019
watermark-remover-1  | [aac @ 0x5f777e939a80] 2 frames left in the queue on closing
watermark-remover-1  | Conversion failed!
watermark-remover-1  |
watermark-remover-1  | [17:16:05.826] ERROR (18): Local processing failed
watermark-remover-1  |     err: "ffmpeg exited with code 1: Conversion failed!\n"
watermark-remover-1  | [17:16:05.847] INFO (18): Cleaned up file: 1773767764305-Flow_delpmaspu_.mp4